<svg width="266" height="266" viewBox="0 0 266 266" fill="none" xmlns="http://www.w3.org/2000/svg">
<rect width="266" height="266" fill="#262626"/>
<path d="M65.0934 80.8424C69.5934 73.8424 69.0934 48.8424 86.5934 45.3424C96.5934 45.3424 115.094 63.8424 149.094 52.3424C182.798 40.9422 186.789 44.3642 195.854 52.1373L196.094 52.3424C206.594 61.3424 204 85.1313 204 92.3424C204 115.562 227.594 135.298 227.594 159.842C227.594 168.842 212.666 176.5 206.594 188.842C205.443 191.181 202.094 210.342 188.094 216.342C174.094 222.342 156.094 204.342 145.594 205.342C135.094 206.342 117.094 220.342 107.594 220.342C98.0935 220.342 81.5935 205.842 71.0935 198.842C60.5935 191.842 50.5935 197.842 43.0935 182.342C35.5935 166.842 56.0934 160.342 47.5934 145.842C39.0934 131.342 37.5934 120.842 40.0934 106.842C42.5934 92.8424 60.5934 87.8424 65.0934 80.8424Z" fill="#FACC16"/>
<path d="M113 130.751L125 145.751" stroke="#262626" stroke-width="10" stroke-linecap="round"/>
<path d="M125.438 146L152.438 119" stroke="#262626" stroke-width="10" stroke-linecap="round"/>
</svg>
